<?xml version="1.0" standalone="no"?>
<!DOCTYPE svg PUBLIC "-//W3C//DTD SVG 20010904//EN"
 "http://www.w3.org/TR/2001/REC-SVG-20010904/DTD/svg10.dtd">
<svg version="1.0" xmlns="http://www.w3.org/2000/svg"
 width="1380.000000pt" height="1380.000000pt" viewBox="0 0 1380.000000 1380.000000"
 preserveAspectRatio="xMidYMid meet">
<metadata>
Created by potrace 1.11, written by Peter Selinger 2001-2013
</metadata>
<g transform="translate(0.000000,1380.000000) scale(0.100000,-0.100000)"
fill="#000000" stroke="none">
<path d="M4421 10735 c-7 -8 -8 -4590 -2 -4590 2 0 4 -22 6 -50 4 -43 16 -150
20 -165 0 -3 5 -27 10 -55 4 -27 10 -54 11 -60 2 -5 5 -21 8 -34 23 -104 41
-152 107 -285 127 -256 332 -415 624 -485 151 -36 223 -44 405 -45 138 0 236
8 342 30 15 3 31 6 35 6 36 5 245 83 268 101 6 4 44 29 85 55 127 82 257 226
326 362 16 30 29 57 29 60 1 3 9 23 18 44 10 22 20 51 24 65 3 14 10 32 16 39
5 6 7 12 4 12 -4 0 0 18 8 40 8 22 14 41 14 43 0 1 2 14 6 28 3 14 8 34 10 45
2 10 4 19 5 19 1 0 4 16 6 35 9 65 13 85 14 85 2 0 6 30 14 110 4 39 10 86 12
105 11 76 10 4490 -1 4491 -33 4 -308 3 -314 -1 -4 -3 -7 -981 -7 -2175 -1
-1970 -3 -2315 -18 -2425 -3 -19 -8 -53 -11 -75 -3 -22 -8 -51 -11 -65 -3 -14
-7 -36 -10 -50 -19 -103 -91 -281 -142 -349 -35 -46 -107 -119 -152 -152 -71
-53 -223 -119 -305 -134 -16 -2 -41 -8 -55 -11 -14 -3 -95 -8 -180 -10 -270
-6 -451 46 -604 172 -109 90 -202 245 -232 385 -36 173 -39 192 -51 349 -4 52
-7 1095 -7 2318 -1 1222 -3 2223 -6 2223 -31 8 -313 2 -319 -6z m2330 -2049
c1 -2426 1 -2333 -15 -2471 -3 -22 -8 -67 -11 -100 -3 -33 -9 -68 -12 -78 -3
-11 -6 -29 -8 -40 -6 -46 -17 -102 -21 -108 -2 -3 -6 -21 -9 -39 -3 -19 -11
-40 -17 -47 -6 -7 -8 -13 -4 -13 9 0 -44 -139 -84 -220 -66 -131 -163 -239
-292 -326 -63 -42 -206 -111 -247 -119 -10 -2 -36 -8 -57 -15 -22 -6 -59 -13
-84 -17 -25 -3 -52 -9 -60 -13 -17 -8 -413 -7 -445 2 -11 3 -42 9 -68 12 -233
34 -471 172 -573 331 -10 17 -22 32 -25 35 -13 9 -86 164 -107 225 -37 108
-60 217 -78 360 -13 110 -16 549 -17 2420 l0 2170 64 0 64 0 1 -2220 c1 -1221
4 -2233 7 -2250 3 -16 9 -64 12 -105 4 -41 9 -77 10 -80 2 -3 6 -26 10 -50 3
-25 10 -58 15 -75 5 -16 11 -42 14 -56 12 -69 96 -238 156 -313 26 -32 84 -87
120 -115 19 -14 37 -29 40 -33 6 -8 160 -83 192 -93 27 -8 31 -10 83 -23 151
-41 389 -48 548 -17 15 3 38 7 52 9 13 2 41 10 62 17 21 7 40 14 43 14 36 10
156 67 195 93 170 116 274 260 338 472 26 85 56 218 62 275 10 98 17 177 20
225 2 30 4 1017 4 2194 1 2091 1 2138 20 2133 10 -2 24 -1 30 2 6 4 25 6 41 3
l30 -4 1 -1952z"/>
<path d="M68 10642 c-21 -2 -38 -9 -39 -15 0 -7 -1 -1284 -2 -2840 -2 -2506 0
-2827 13 -2828 8 -1 54 -2 102 -3 l88 -1 0 2655 c0 1460 0 2682 1 2715 l1 60
29 -115 c15 -63 30 -124 33 -135 20 -90 42 -181 131 -550 57 -234 96 -399 100
-415 2 -8 11 -44 20 -80 9 -36 18 -74 20 -85 1 -11 5 -27 8 -35 5 -14 24 -92
32 -130 2 -8 28 -118 60 -245 31 -126 58 -240 60 -251 3 -12 21 -88 41 -170
20 -82 37 -156 39 -165 2 -9 8 -33 14 -55 16 -64 32 -128 36 -149 2 -11 4 -20
5 -20 1 0 3 -10 6 -23 2 -13 22 -98 45 -190 22 -92 42 -174 44 -182 2 -8 18
-73 35 -145 17 -71 34 -141 36 -154 3 -14 7 -28 9 -31 2 -4 7 -22 10 -41 3
-19 20 -88 36 -154 17 -66 32 -128 34 -138 3 -10 6 -26 9 -35 5 -17 11 -44 22
-97 3 -16 8 -37 11 -45 3 -8 8 -23 9 -32 2 -9 22 -90 43 -180 76 -311 103
-423 106 -438 4 -19 93 -387 102 -420 3 -14 7 -32 9 -40 2 -8 7 -33 13 -55 35
-138 43 -172 46 -190 1 -11 8 -40 15 -65 7 -25 13 -49 14 -55 2 -5 8 -35 15
-65 l13 -55 107 0 c58 0 111 4 117 7 6 4 17 36 24 70 8 35 14 65 15 68 17 61
25 89 29 110 4 21 18 82 41 170 4 19 26 110 30 130 2 8 15 62 30 120 28 108
64 260 70 295 2 11 26 110 54 220 45 181 97 394 106 437 2 9 25 103 50 210 26
106 49 200 50 208 2 8 4 15 5 15 1 0 3 7 5 15 1 8 8 35 15 59 6 25 13 56 15
70 2 14 4 26 5 26 1 0 41 162 56 225 3 14 19 81 35 150 17 69 32 132 34 140 2
8 15 62 29 120 15 58 28 114 31 125 8 38 13 61 40 165 15 58 29 114 31 125 2
11 7 34 11 50 9 37 7 32 20 80 6 22 23 92 38 155 15 63 43 178 61 255 19 77
36 149 39 160 2 11 4 20 5 20 1 0 3 9 5 20 1 11 10 49 19 85 15 58 20 78 31
130 2 8 4 15 5 15 1 0 3 7 5 15 2 8 6 26 9 40 8 39 18 78 143 590 19 80 36
152 38 160 2 8 8 35 15 60 7 25 14 56 17 70 7 38 7 38 34 145 l24 99 5 -2714
5 -2714 85 -1 c47 -1 91 0 98 3 9 3 12 581 12 2843 l0 2839 -32 1 c-41 0 -301
0 -309 0 -6 -1 -20 -49 -34 -111 -10 -42 -69 -290 -76 -320 -5 -19 -11 -42
-14 -52 -2 -9 -17 -74 -34 -145 -17 -70 -33 -138 -36 -151 -2 -12 -6 -26 -9
-30 -3 -5 -8 -22 -10 -38 -10 -54 -14 -72 -55 -241 -22 -92 -46 -186 -52 -208
-7 -22 -13 -47 -14 -55 -2 -8 -17 -76 -35 -150 -17 -74 -33 -142 -35 -150 -2
-8 -24 -100 -50 -205 -26 -104 -48 -198 -50 -208 -2 -10 -7 -28 -11 -40 -4
-12 -8 -31 -9 -42 -2 -11 -8 -40 -15 -65 -7 -25 -13 -52 -15 -60 -2 -8 -12
-51 -24 -95 -11 -44 -22 -91 -25 -105 -3 -14 -19 -81 -36 -150 -16 -69 -32
-135 -35 -146 -3 -12 -19 -80 -36 -150 -17 -71 -32 -136 -34 -144 -10 -46 -38
-157 -42 -170 -4 -8 -6 -18 -5 -22 1 -3 -5 -27 -12 -52 -8 -25 -12 -46 -10
-46 2 0 -1 -11 -6 -25 -5 -14 -12 -36 -14 -48 -6 -27 -2 -9 -71 -297 -31 -129
-58 -244 -60 -254 -3 -11 -19 -76 -36 -145 -17 -69 -32 -133 -34 -141 -2 -8
-17 -73 -35 -145 -17 -71 -33 -134 -34 -140 -1 -5 -9 -37 -16 -70 -17 -74 -17
-74 -20 -77 -1 -2 -3 -10 -5 -18 -2 -8 -13 -55 -25 -105 -12 -49 -23 -99 -25
-110 -2 -11 -11 -49 -20 -85 -9 -36 -18 -69 -19 -75 -21 -97 -51 -212 -56
-218 -4 -5 -13 20 -20 55 -8 35 -14 65 -15 68 -1 3 -5 19 -9 35 -4 17 -12 48
-17 70 -5 22 -12 49 -14 60 -2 11 -11 47 -19 80 -34 132 -59 238 -76 310 -5
22 -13 58 -19 79 -5 22 -8 44 -5 48 3 4 0 8 -5 8 -6 0 -11 8 -11 19 0 17 -13
71 -76 326 -13 55 -27 111 -30 125 -10 42 -22 92 -38 156 -8 34 -17 72 -20 85
-2 13 -12 53 -21 89 -9 36 -19 73 -21 83 -2 10 -6 27 -9 37 -3 10 -8 28 -10
39 -3 12 -7 31 -11 44 -3 12 -7 31 -9 42 -2 11 -10 47 -19 81 -14 59 -18 74
-31 138 -3 16 -8 33 -11 38 -3 5 -8 20 -10 35 -4 22 -92 390 -111 463 -3 14
-7 30 -9 35 -1 6 -21 87 -44 180 -23 94 -43 177 -45 185 -18 81 -29 125 -60
255 -20 83 -56 231 -81 330 -25 99 -46 189 -48 200 -2 11 -16 70 -31 130 -15
61 -28 117 -30 125 -2 8 -17 71 -34 140 -18 69 -33 134 -36 145 -2 11 -11 47
-19 81 -15 59 -18 75 -31 138 -3 16 -8 33 -11 38 -3 5 -8 21 -10 35 -3 15 -32
137 -65 271 -32 134 -61 254 -63 265 -12 56 -16 72 -26 103 -7 20 -18 34 -28
35 -81 3 -254 3 -284 1z"/>
<path d="M8024 10641 c-2 -2 -14 -4 -26 -5 l-23 -1 -1 -2830 c0 -1557 1 -2835
3 -2840 2 -6 44 -10 101 -10 l97 0 5 2753 5 2752 54 -162 c30 -90 57 -167 60
-173 3 -5 6 -14 7 -20 1 -5 27 -84 59 -175 31 -91 59 -174 62 -185 3 -11 9
-29 13 -40 5 -11 48 -135 95 -275 48 -140 113 -334 145 -430 33 -96 109 -321
171 -500 115 -338 128 -375 134 -400 2 -8 11 -32 19 -52 9 -21 13 -38 10 -38
-4 0 -2 -6 3 -12 9 -12 33 -76 39 -103 1 -5 21 -64 44 -130 23 -66 46 -133 50
-150 9 -29 109 -320 111 -320 0 0 2 -7 4 -15 3 -15 100 -301 112 -330 3 -8 7
-19 8 -25 2 -5 35 -104 75 -220 39 -115 93 -275 120 -355 27 -80 72 -212 101
-295 28 -82 52 -154 54 -160 1 -5 5 -17 8 -25 3 -8 15 -44 27 -80 12 -36 25
-72 28 -80 3 -8 6 -19 8 -25 1 -5 39 -118 84 -250 70 -206 89 -261 92 -272 0
-1 17 -48 37 -105 l36 -103 165 0 165 0 0 2838 c1 1683 -3 2841 -8 2844 -12 8
-172 7 -185 -1 -7 -4 -10 -895 -11 -2704 0 -1483 0 -2710 0 -2726 -1 -32 -8
-32 -14 0 -2 10 -7 26 -10 34 -3 8 -13 38 -22 65 -10 28 -20 57 -23 65 -3 8
-6 17 -7 20 0 3 -9 30 -20 60 -11 30 -20 57 -20 60 0 3 -14 43 -30 90 -16 47
-30 87 -30 90 -1 3 -5 14 -9 25 -25 65 -38 100 -36 100 1 0 -3 13 -9 28 -6 16
-11 34 -11 41 0 7 -3 16 -7 20 -4 3 -8 12 -9 19 -3 16 -114 346 -125 372 -10
22 -88 251 -94 275 -2 8 -13 44 -26 80 -32 95 -32 94 -35 105 -15 49 -141 413
-146 421 -4 6 -9 22 -12 36 -2 15 -9 35 -14 45 -6 10 -11 21 -11 25 -2 9 -2 8
-42 128 -17 52 -32 99 -34 105 -2 12 -14 43 -25 70 -5 11 -13 36 -19 55 -5 19
-62 188 -126 375 -64 187 -132 387 -151 445 -19 58 -39 114 -43 125 -5 11 -16
43 -24 70 -20 66 -87 265 -98 290 -4 11 -22 63 -39 115 -17 52 -35 104 -40
115 -4 11 -54 157 -110 325 -56 168 -104 312 -107 320 -3 8 -7 20 -9 25 -1 6
-30 89 -64 185 -33 96 -62 182 -65 190 -8 32 -102 306 -107 315 -3 6 -11 29
-17 53 -13 48 -47 70 -80 52 -10 -5 -21 -7 -23 -4 -6 6 -208 11 -214 5z"/>
<path d="M11668 10645 c-3 -3 -29 -6 -59 -6 l-54 -2 0 -2836 c0 -1560 3 -2838
7 -2841 6 -5 167 -5 189 -1 3 0 6 1279 6 2840 0 2744 -1 2840 -19 2844 -10 3
-21 1 -24 -4 -3 -5 -13 -5 -23 1 -10 5 -20 7 -23 5z"/>
<path d="M12020 4855 c0 -5 71 -215 210 -625 66 -195 123 -362 125 -370 2 -8
29 -89 60 -180 31 -91 58 -172 60 -180 4 -16 92 -276 102 -300 3 -8 7 -22 9
-30 2 -8 12 -37 22 -63 l18 -48 29 58 c16 32 32 60 35 63 3 3 20 34 39 70 36
69 98 186 138 260 14 25 30 51 35 58 6 6 7 12 4 12 -4 0 0 7 8 16 9 8 16 21
16 28 0 8 6 19 14 25 12 10 18 8 33 -7 22 -22 263 -277 349 -368 70 -74 51
-80 174 56 41 45 90 99 108 119 l33 36 -123 118 c-209 200 -306 296 -313 307
-5 8 145 92 161 89 4 0 10 3 13 8 3 5 95 53 203 108 186 94 219 115 183 115
-8 0 -23 4 -33 9 -16 8 -107 43 -217 81 -83 29 -199 71 -220 80 -11 4 -40 15
-65 23 -171 60 -735 264 -765 278 -11 5 -30 11 -43 14 -12 2 -26 6 -31 10 -13
7 -202 75 -224 80 -9 2 -23 7 -30 12 -6 4 -16 8 -22 9 -5 1 -29 9 -52 18 -24
8 -43 13 -43 11z m270 -205 c36 -12 74 -25 85 -30 11 -6 60 -24 109 -41 49
-17 100 -35 115 -41 14 -6 31 -12 36 -14 6 -1 55 -19 110 -39 55 -21 129 -48
165 -60 36 -13 103 -37 150 -55 47 -17 119 -43 160 -57 41 -14 80 -29 85 -33
9 -6 54 -20 70 -21 2 0 30 -11 60 -24 31 -14 62 -25 71 -25 32 0 -1 -22 -134
-89 -75 -38 -171 -86 -212 -106 -41 -21 -90 -47 -108 -58 l-33 -19 128 -125
c70 -68 176 -171 236 -228 59 -57 107 -107 107 -111 0 -3 -23 -30 -52 -60 -49
-51 -52 -53 -67 -35 -9 10 -88 94 -176 186 -88 92 -184 192 -213 223 l-53 56
-19 -32 c-11 -18 -20 -35 -20 -37 0 -3 -22 -44 -48 -92 -27 -49 -77 -142 -112
-208 -56 -106 -96 -169 -89 -140 1 6 -1 17 -4 25 -4 8 -36 103 -72 210 -89
265 -156 462 -206 605 -22 66 -42 125 -43 130 -2 6 -8 22 -14 38 -7 15 -14 38
-17 50 -2 12 -25 80 -50 151 -25 71 -45 132 -45 137 0 5 8 5 18 0 9 -6 46 -20
82 -31z"/>
<path d="M29 4297 c0 -43 0 -932 0 -977 l1 -36 5859 1 c3223 0 5863 3 5867 7
5 6 10 965 5 1028 -1 6 -2077 9 -5866 9 l-5865 0 -1 -32z m5954 -127 c9 -35
-8 -42 -114 -45 -176 -5 -207 -17 -246 -96 -26 -50 -43 -149 -21 -115 51 76
107 106 193 102 173 -7 272 -177 192 -332 -46 -90 -124 -135 -224 -129 -63 3
-93 16 -142 60 -59 53 -83 125 -83 245 0 107 6 156 23 176 6 8 8 14 3 14 -5 0
-4 4 1 8 6 4 15 16 21 27 28 51 108 83 228 92 39 3 72 6 73 7 1 1 22 2 47 2
34 1 45 -3 49 -16z m-4883 -162 c48 -15 115 -88 130 -142 23 -84 30 -81 -185
-81 -132 1 -192 -3 -197 -11 -24 -37 63 -162 115 -165 96 -7 160 14 193 62 23
35 37 41 58 26 15 -11 14 -16 -13 -53 -60 -81 -184 -113 -281 -72 -45 19 -90
58 -90 78 0 5 -4 10 -8 10 -15 0 -36 81 -35 134 3 167 148 266 313 214z m1562
-7 c80 -38 129 -114 131 -201 2 -132 -84 -232 -210 -244 -58 -6 -105 8 -155
46 -20 15 -39 28 -42 28 -3 0 -5 -35 -4 -77 0 -156 0 -155 -24 -151 -13 2 -25
6 -28 10 -4 5 -5 539 -1 595 1 8 10 11 24 9 12 -3 25 -5 28 -5 3 -1 5 -17 2
-36 -4 -42 2 -44 36 -7 25 27 49 41 79 48 8 1 16 5 19 8 12 12 102 -2 145 -23z
m-608 8 c50 -12 114 -67 142 -120 12 -23 18 -56 18 -105 0 -62 -4 -78 -30
-120 -16 -27 -49 -62 -72 -78 -37 -26 -53 -31 -114 -33 -55 -1 -80 3 -112 19
-113 56 -160 193 -106 313 47 106 154 155 274 124z m1408 -17 c77 -35 111 -83
67 -97 -14 -5 -26 0 -38 14 -28 33 -90 54 -151 53 -95 -2 -172 -76 -172 -165
0 -118 94 -207 205 -194 55 6 86 19 119 50 25 23 28 24 48 10 l22 -15 -28 -29
c-25 -27 -81 -59 -114 -66 -65 -14 -200 5 -200 29 0 4 -4 8 -10 8 -5 0 -22 10
-36 23 -68 58 -86 185 -40 274 18 36 75 93 93 93 7 0 13 4 13 9 0 12 78 27
132 25 25 -1 66 -11 90 -22z m4396 4 c43 -22 100 -93 113 -140 16 -59 12 -132
-11 -174 -25 -48 -37 -61 -84 -96 -53 -39 -149 -47 -217 -18 -46 20 -104 81
-126 132 -16 38 -9 150 11 190 16 32 89 109 105 111 24 3 44 8 49 14 11 11
129 -3 160 -19z m-7269 -189 c80 -186 86 -197 112 -197 26 0 27 -2 25 -52 -1
-44 -4 -53 -18 -52 -34 3 -38 4 -36 12 1 4 -1 16 -5 27 -6 19 -15 20 -184 19
-174 -1 -178 -2 -179 -23 -1 -11 -2 -25 -3 -31 0 -5 -13 -10 -29 -10 -26 0
-27 2 -27 52 0 46 3 51 23 55 25 3 52 25 52 41 0 10 112 271 130 304 6 10 10
24 10 32 0 15 18 26 35 22 5 -2 48 -91 94 -199z m823 109 l3 -95 51 47 c28 26
72 67 98 91 38 35 57 45 90 48 l41 4 -55 -53 c-31 -29 -81 -75 -113 -103 l-57
-50 123 -123 122 -123 -43 4 c-40 4 -52 13 -138 101 -52 53 -101 96 -109 96
-12 0 -15 -18 -15 -100 l0 -100 -28 0 -27 0 1 223 c1 122 2 223 3 225 0 1 12
2 26 2 24 0 24 -2 27 -94z m2470 77 c58 -28 75 -112 34 -160 l-24 -28 36 -31
c34 -29 36 -35 37 -88 0 -51 -3 -59 -34 -88 -33 -31 -37 -32 -137 -35 -91 -2
-105 -1 -113 15 -5 10 -6 24 -1 32 4 7 5 23 1 34 -4 12 -6 41 -4 66 2 25 3 51
3 58 -1 32 -2 214 -1 227 1 19 164 18 203 -2z m498 -8 c28 -14 50 -30 50 -35
0 -5 8 -14 18 -19 16 -9 18 -6 15 30 -3 38 -2 40 24 36 l28 -4 0 -217 0 -217
-25 3 c-17 2 -25 10 -26 23 -1 11 -2 26 -3 34 -1 8 -14 1 -37 -19 -42 -37 -74
-50 -129 -55 -112 -9 -226 85 -241 198 -8 54 9 129 37 169 26 36 80 77 109 83
13 2 25 7 28 10 15 15 106 3 152 -20z m534 -112 c33 -76 68 -158 79 -183 37
-87 37 -87 63 -82 23 4 24 2 24 -50 0 -54 -1 -55 -27 -53 -23 1 -29 6 -31 30
l-3 30 -172 -2 c-95 -1 -178 -2 -184 -2 -8 -1 -13 -14 -13 -31 0 -25 -4 -30
-25 -30 -25 0 -27 5 -27 60 0 43 3 48 27 48 14 0 27 1 29 3 2 2 36 81 76 174
88 207 97 225 113 225 7 0 39 -62 71 -137z m297 105 c0 -18 0 -58 -1 -89 l-1
-56 58 -1 c32 -2 71 -5 88 -8 92 -19 136 -122 84 -199 -35 -51 -64 -61 -179
-63 -88 -1 -100 1 -101 16 -5 100 -2 410 5 420 5 6 17 12 27 12 15 0 19 -8 20
-32z m960 13 c1 -9 1 -48 1 -87 l-1 -72 83 -4 c88 -5 126 -22 153 -71 31 -56
2 -149 -56 -179 -40 -20 -227 -24 -233 -5 -3 10 -2 409 1 428 1 4 12 7 26 7
16 0 25 -6 26 -17z m386 -209 l1 -223 -26 3 -27 3 0 210 c-1 116 1 216 3 223
3 7 14 12 26 10 21 -3 21 -7 23 -226z m553 214 c72 -31 91 -116 39 -172 -20
-21 -20 -21 5 -38 36 -23 54 -64 50 -113 -6 -75 -53 -106 -169 -110 -133 -4
-120 -27 -118 219 0 117 2 216 2 220 2 11 164 6 191 -6z m1214 -48 c15 -35 32
-72 37 -83 5 -11 31 -72 57 -135 43 -102 52 -115 75 -118 15 -2 28 -9 28 -15
8 -69 -1 -96 -31 -94 -11 1 -21 7 -21 14 -1 7 -3 18 -4 23 -1 6 -3 13 -4 18
-1 6 -140 7 -345 3 -21 -1 -27 -5 -22 -16 9 -25 -4 -45 -30 -45 -19 0 -24 5
-25 28 -1 15 0 32 1 37 2 6 2 18 2 29 -1 14 5 17 27 14 25 -4 29 1 46 41 24
60 51 124 81 188 13 28 24 54 24 56 0 20 53 117 64 117 7 0 25 -28 40 -62z
m332 -98 c1 -85 2 -158 3 -163 0 -4 72 65 158 153 87 88 160 160 164 160 3 0
5 -98 5 -217 l-1 -218 -22 -3 c-28 -4 -25 -19 -27 160 0 80 -3 149 -6 151 -3
3 -77 -66 -165 -153 -87 -88 -160 -158 -161 -157 -7 7 -10 99 -3 103 4 2 6 12
4 22 -12 58 -14 82 -7 78 5 -3 5 17 2 44 -4 28 -3 55 1 62 4 6 4 21 0 32 -6
18 -6 41 1 94 1 8 12 12 27 10 l26 -3 1 -155z m521 95 c1 -33 2 -72 2 -87 l1
-27 129 1 128 0 -1 47 c-1 25 2 54 6 64 5 9 5 17 0 17 -5 0 -7 11 -4 25 4 21
9 25 31 22 l26 -4 0 -219 0 -219 -27 -3 c-20 -2 -27 1 -27 15 -1 10 -1 59 -2
108 l-1 91 -123 -1 c-68 0 -127 -3 -131 -8 -4 -4 -7 -52 -7 -107 l0 -100 -27
0 -26 0 1 218 c1 119 3 221 3 225 1 5 12 7 25 5 20 -3 22 -9 24 -63z m735 53
c2 -7 3 -48 2 -90 -1 -43 1 -78 3 -78 7 0 60 44 117 99 66 62 96 81 129 81 33
0 34 -7 5 -32 -13 -11 -56 -50 -97 -86 -40 -37 -77 -68 -82 -70 -19 -7 -7 -28
44 -78 28 -28 81 -81 117 -118 l64 -66 -37 0 c-34 0 -46 9 -142 105 -73 75
-106 102 -112 93 -4 -7 -8 -53 -8 -103 l-1 -90 -27 -2 c-18 -1 -27 3 -27 13
-1 8 -1 84 -1 169 0 288 -2 265 25 265 13 0 26 -6 28 -12z m617 -147 c39 -85
71 -160 71 -168 0 -7 4 -13 9 -13 5 0 11 -8 14 -17 3 -10 12 -35 21 -55 l16
-37 -31 1 c-29 1 -34 7 -76 97 -24 53 -45 101 -46 106 -1 6 -5 12 -8 15 -3 3
-12 23 -21 45 -9 22 -21 40 -27 40 -7 0 -31 -43 -55 -95 -23 -52 -52 -116 -64
-142 -12 -26 -22 -52 -22 -58 0 -5 -13 -9 -30 -8 -16 1 -30 5 -30 9 0 4 15 40
34 81 18 40 44 96 56 123 12 28 38 82 56 122 19 40 34 76 34 81 0 9 22 33 26
29 2 -1 35 -72 73 -156z m273 -10 l0 -164 131 129 c73 71 131 130 130 132 -2
5 59 62 66 62 5 0 6 -356 2 -428 -1 -8 -10 -12 -23 -10 -23 3 -23 5 -24 156
-1 84 -4 155 -6 158 -3 2 -77 -68 -164 -156 -123 -123 -160 -156 -164 -142 -5
13 -5 391 -1 424 1 4 13 6 27 5 l27 -2 -1 -164z m513 160 c3 -5 6 -48 6 -96
l2 -86 30 28 c17 15 40 37 52 48 112 104 126 114 160 113 19 -1 35 -2 35 -4 0
-4 -23 -26 -95 -89 -37 -33 -80 -72 -96 -86 l-28 -26 122 -122 122 -122 -44 4
c-41 4 -51 12 -142 105 -110 114 -117 115 -118 12 0 -122 1 -117 -26 -117 -14
0 -25 2 -26 6 -3 18 -4 427 -1 434 5 10 40 9 47 -2z"/>
<path d="M5712 3950 c-24 -11 -49 -26 -57 -34 -24 -24 -57 -95 -51 -111 3 -8
1 -15 -3 -15 -14 0 15 -85 39 -118 12 -15 34 -36 51 -46 31 -18 139 -30 139
-15 0 5 8 9 17 9 29 0 91 76 101 123 29 144 -108 264 -236 207z"/>
<path d="M964 3954 c-44 -15 -90 -57 -103 -95 -8 -25 -7 -29 7 -29 9 -1 82 -1
162 -1 143 0 145 0 142 21 -4 35 -41 79 -80 96 -49 21 -83 24 -128 8z"/>
<path d="M2518 3962 c-37 -4 -112 -73 -125 -115 -6 -19 -9 -53 -8 -77 11 -181
253 -227 330 -63 65 136 -42 274 -197 255z"/>
<path d="M1923 3951 c-68 -27 -105 -82 -109 -166 -3 -82 43 -147 123 -171 135
-41 254 79 219 221 -2 11 -5 23 -5 26 -1 3 -16 22 -33 42 -53 58 -124 76 -195
48z"/>
<path d="M7697 3955 c-75 -26 -117 -86 -118 -168 -1 -81 37 -141 106 -169 113
-45 235 34 240 156 6 130 -110 222 -228 181z"/>
<path d="M422 3768 c-33 -78 -59 -145 -56 -149 4 -7 244 -9 244 -2 0 5 -42
110 -59 148 -10 22 -27 64 -37 93 -10 28 -21 52 -24 52 -4 0 -34 -64 -68 -142z"/>
<path d="M3739 3963 c-1 -1 -3 -33 -3 -71 l-2 -67 49 -3 c66 -4 97 17 97 62 0
53 -26 77 -88 80 -28 2 -53 1 -53 -1z"/>
<path d="M3739 3763 c-6 -64 -2 -136 8 -145 17 -14 122 -3 140 14 33 34 20
107 -24 127 -27 12 -123 15 -124 4z"/>
<path d="M4270 3962 c-14 -1 -32 -6 -40 -9 -8 -3 -18 -5 -22 -5 -5 1 -8 -2 -8
-8 0 -5 -5 -10 -11 -10 -14 0 -48 -41 -49 -57 0 -7 -4 -13 -8 -13 -9 0 -10 -3
-15 -65 -14 -170 185 -265 300 -143 55 59 63 155 18 224 -43 66 -99 95 -165
86z"/>
<path d="M4824 3885 c-3 -14 -11 -25 -17 -25 -6 0 -8 -3 -5 -6 4 -3 -7 -35
-24 -72 -17 -37 -39 -86 -49 -109 -10 -23 -19 -46 -19 -51 0 -11 238 -13 245
-2 2 3 -3 20 -11 36 -9 16 -15 29 -14 29 2 0 -4 16 -13 36 -8 20 -28 70 -43
112 -16 42 -32 77 -36 77 -4 0 -10 -11 -14 -25z"/>
<path d="M5219 3765 c-1 -5 -2 -43 -3 -82 l-1 -73 58 0 c61 0 110 19 121 45
20 53 -11 113 -58 116 -83 5 -116 3 -117 -6z"/>
<path d="M6179 3771 c-1 -3 -2 -41 -3 -84 l-1 -77 45 -1 c25 -1 50 0 55 1 6 1
18 4 28 6 29 5 57 44 57 79 0 51 -35 75 -114 79 -36 2 -67 0 -67 -3z"/>
<path d="M6973 3957 c-5 -9 -7 -62 -4 -117 1 -13 13 -16 54 -15 74 2 75 3 83
28 23 66 -6 107 -80 112 -26 1 -49 -2 -53 -8z"/>
<path d="M6974 3756 c-3 -7 -4 -42 -2 -77 l3 -64 60 -1 c74 -1 105 21 105 73
0 53 -39 83 -107 83 -36 0 -55 -4 -59 -14z"/>
<path d="M8261 3865 c-13 -27 -29 -63 -36 -80 -8 -16 -27 -60 -44 -97 -35 -81
-40 -78 115 -76 l111 1 -29 71 c-16 39 -31 76 -33 81 -4 17 -25 68 -44 110
l-18 40 -22 -50z"/>
</g>
</svg>
