<?xml version="1.0" encoding="utf-8"?>
<!-- Generator: Adobe Illustrator 24.1.1, SVG Export Plug-In . SVG Version: 6.00 Build 0)  -->
<svg version="1.1" id="Layer_2" xmlns="http://www.w3.org/2000/svg" xmlns:xlink="http://www.w3.org/1999/xlink" x="0px" y="0px"
	 viewBox="0 0 345.2 196" style="enable-background:new 0 0 345.2 196;" xml:space="preserve">
<style type="text/css">
	.st0{fill:#EB566A;}
</style>
<polygon class="st0" points="78.7,4.5 77.3,4.5 73.6,4.5 41.5,137.6 9.3,4.5 5.7,4.5 4.3,4.5 0.7,4.5 0.7,146.6 5.7,146.6 5.7,10.4 
	38.6,146.6 39.3,146.6 43.7,146.6 44.3,146.6 77.3,10.4 77.3,146.6 82.3,146.6 82.3,4.5 "/>
<polygon class="st0" points="254.7,4.5 254.7,141.4 208.2,4.5 204.6,4.5 203.2,4.5 199.5,4.5 199.5,146.6 204.6,146.6 204.6,8.6 
	251.5,146.6 254.7,146.6 256.5,146.6 259.8,146.6 259.8,4.5 "/>
<rect x="289.1" y="4.5" class="st0" width="5" height="142.1"/>
<g>
	<path class="st0" d="M140.6,146.4c-20.9,0-30.2-10.9-30.2-35.3V1.9h8.3V110c0,9.6,1.5,16.9,4.2,20.5c3.3,5.1,9.5,7.8,17.6,7.8
		c8.3,0,14.8-3,18.3-8.4c2.9-4.5,4.4-11.8,4.4-21.1V1.9h8.3v104.2c0,13-2,22.5-6.2,28.9C160,142.6,151.7,146.4,140.6,146.4z
		 M113,4.5v106.6c0,22.9,8.2,32.7,27.6,32.7c10.2,0,17.8-3.5,22.5-10.3c3.9-6,5.8-14.9,5.8-27.5V4.5h-3.1v104.3
		c0,9.8-1.7,17.6-4.8,22.5c-4,6.2-11.3,9.6-20.5,9.6c-9,0-16-3.2-19.7-9c-3.8-5.2-4.6-14.9-4.6-22V4.5H113z"/>
</g>
<g>
	<path class="st0" d="M107.3,171.4c-0.8,0-1.5,0.2-2.2,0.6c-0.7,0.4-1.2,0.9-1.6,1.7c-0.4,0.7-0.6,1.5-0.6,2.3
		c0,0.8,0.2,1.5,0.6,2.3c0.4,0.7,0.9,1.3,1.6,1.7c0.7,0.4,1.4,0.6,2.2,0.6c0.8,0,1.5-0.2,2.2-0.6c0.7-0.4,1.2-0.9,1.6-1.6
		c0.4-0.7,0.6-1.4,0.6-2.3c0-1.3-0.4-2.4-1.3-3.2C109.6,171.8,108.5,171.4,107.3,171.4z"/>
	<path class="st0" d="M176.5,176.3h-2.1v3.9h1.5c0.7,0,1.2,0,1.6-0.1c0.3-0.1,0.6-0.3,0.8-0.6c0.2-0.3,0.3-0.7,0.3-1.2
		c0-0.6-0.2-1.1-0.6-1.5C177.7,176.5,177.2,176.3,176.5,176.3z"/>
	<path class="st0" d="M95.6,176.3h-2.1v3.9H95c0.7,0,1.2,0,1.6-0.1c0.3-0.1,0.6-0.3,0.8-0.6c0.2-0.3,0.3-0.7,0.3-1.2
		c0-0.6-0.2-1.1-0.6-1.5C96.7,176.5,96.2,176.3,95.6,176.3z"/>
	<path class="st0" d="M193.9,171.4c-1.2,0-2.2,0.4-3.1,1.3s-1.3,2-1.3,3.2c0,0.8,0.2,1.6,0.6,2.3c0.4,0.7,0.9,1.2,1.6,1.6
		c0.7,0.4,1.4,0.6,2.2,0.6c0.8,0,1.5-0.2,2.2-0.6c0.7-0.4,1.2-0.9,1.6-1.6c0.4-0.7,0.6-1.5,0.6-2.3c0-1.3-0.4-2.3-1.3-3.2
		S195.1,171.4,193.9,171.4z"/>
	<path class="st0" d="M157.8,176.3c-0.4-0.1-1.1-0.2-2.1-0.2h-1.2v4.2h1.7c1.9,0,2.9-0.7,2.9-2.1c0-0.4-0.1-0.8-0.3-1.2
		C158.5,176.7,158.2,176.4,157.8,176.3z"/>
	<path class="st0" d="M177,174.9c0.3-0.1,0.5-0.2,0.7-0.5c0.2-0.3,0.3-0.6,0.3-1.1c0-0.5-0.1-0.9-0.4-1.2c-0.2-0.3-0.5-0.5-0.8-0.6
		c-0.3-0.1-0.8-0.1-1.6-0.1h-0.9v3.5h0.9C176.2,175,176.7,175,177,174.9z"/>
	<path class="st0" d="M133.8,176.3c-0.4-0.1-1.1-0.2-2.1-0.2h-1.2v4.2h1.7c1.9,0,2.9-0.7,2.9-2.1c0-0.4-0.1-0.8-0.3-1.2
		S134.2,176.4,133.8,176.3z"/>
	<polygon class="st0" points="117.7,180.2 124.1,180.2 121,172.5 	"/>
	<path class="st0" d="M0.7,162.3v26.1h293.5v-26.1H0.7z M18.2,182.9h-1.4v-1.4H7.6v1.5H6.1v-2.7h1.4l4.3-10h0.8l4.3,10h1.3V182.9z
		 M22.3,179.2c0.8,0.8,1.8,1.2,3,1.2c0.6,0,1.1-0.1,1.7-0.3c0.5-0.2,1-0.5,1.4-0.8c0.4-0.3,0.8-0.9,1.2-1.6l1.2,0.6
		c-0.4,0.8-0.9,1.4-1.4,1.9c-0.5,0.5-1.1,0.8-1.8,1.1c-0.7,0.3-1.4,0.4-2.2,0.4c-1.8,0-3.3-0.6-4.3-1.8c-1-1.2-1.5-2.6-1.5-4.1
		c0-1.4,0.4-2.7,1.3-3.8c1.1-1.4,2.6-2.1,4.4-2.1c1.9,0,3.4,0.7,4.6,2.2c0.8,1,1.2,2.3,1.2,3.8H21.1
		C21.1,177.3,21.5,178.3,22.3,179.2z M40.9,181.5l-5.1-5.2l-0.5,0.4v4.8h-1.4v-11.2h1.4v4.7l5.2-4.7h2l-5.7,5.1l6.1,6.1H40.9z
		 M53.9,180c-1.1,1.2-2.5,1.8-4.2,1.8c-1.7,0-3.1-0.6-4.2-1.8c-1.1-1.2-1.6-2.5-1.6-4.1c0-1.5,0.5-2.9,1.5-4
		c1.1-1.3,2.6-1.9,4.3-1.9c1.7,0,3.2,0.6,4.3,1.9c1,1.1,1.5,2.5,1.5,4C55.5,177.5,55,178.8,53.9,180z M68.2,180
		c-1.1,1.1-2.5,1.7-4.1,1.7c-0.9,0-1.7-0.2-2.5-0.6c-0.7-0.4-1.4-0.9-2-1.7v6h-1.4v-15.3h1.4v2.1c0.6-0.8,1.2-1.4,2-1.8
		c0.7-0.4,1.6-0.6,2.5-0.6c1.6,0,2.9,0.6,4.1,1.7c1.1,1.1,1.7,2.5,1.7,4.1C69.9,177.5,69.3,178.9,68.2,180z M79.9,178.2
		c0.4,0.7,1,1.3,1.7,1.7c0.7,0.4,1.5,0.6,2.4,0.6c1.6,0,3-0.7,4-2l1.1,0.8c-0.5,0.8-1.3,1.4-2.2,1.9c-0.9,0.4-1.9,0.7-3.1,0.7
		c-1.8,0-3.2-0.6-4.4-1.7s-1.7-2.5-1.7-4.1c0-1.1,0.3-2.1,0.8-3c0.5-0.9,1.3-1.7,2.2-2.2s2-0.8,3.2-0.8c0.7,0,1.5,0.1,2.1,0.3
		s1.3,0.5,1.8,0.9c0.5,0.4,0.9,0.8,1.2,1.4l-1.1,0.7c-1-1.3-2.3-2-4-2c-1.4,0-2.5,0.4-3.4,1.3c-0.9,0.9-1.3,1.9-1.3,3.2
		C79.3,176.7,79.5,177.4,79.9,178.2z M95.3,181.5H92v-11.2h3.2c1.2,0,2.1,0.3,2.6,0.8c0.5,0.6,0.8,1.2,0.8,2c0,1.1-0.5,1.9-1.5,2.3
		c1.5,0.5,2.2,1.5,2.2,3C99.3,180.4,98,181.5,95.3,181.5z M113,181.5h-1.4v-1.9c-0.6,0.7-1.3,1.3-2,1.7c-0.8,0.4-1.6,0.6-2.5,0.6
		c-1.6,0-2.9-0.6-4.1-1.7c-1.1-1.1-1.7-2.5-1.7-4.2c0-1.6,0.6-3,1.7-4.1s2.5-1.7,4.1-1.7c0.9,0,1.8,0.2,2.5,0.6c0.7,0.4,1.4,1,2,1.8
		v-2.1h1.4V181.5z M127,182.9h-1.4v-1.4h-9.3v1.5H115v-2.7h1.4l4.3-10h0.8l4.3,10h1.3V182.9z M135.6,180.5c-0.6,0.7-1.6,1-2.9,1H129
		v-11.2h1.4v4.4h1.4c1.1,0,1.9,0.1,2.6,0.3s1.1,0.6,1.6,1.1c0.4,0.6,0.7,1.3,0.7,2C136.6,179,136.3,179.8,135.6,180.5z M148.7,180
		c-1.1,1.2-2.5,1.7-4.2,1.7c-1.7,0-3.2-0.6-4.3-1.9c-1.2-1.3-1.8-3.3-1.8-6c0-1.9,0.2-3.4,0.7-4.3c0.4-1,0.9-1.7,1.5-2.1
		c0.6-0.4,1.3-0.8,2.2-1c0.9-0.2,2.6-0.4,5-0.5c0.8,0,1.4-0.1,1.9-0.1v1.4c-0.7,0.1-1.9,0.2-3.5,0.2c-1.2,0-2.1,0.1-2.8,0.2
		c-0.7,0.1-1.2,0.3-1.7,0.7c-0.5,0.3-0.9,0.9-1.2,1.5c-0.3,0.7-0.5,1.5-0.6,2.3l-0.1,1.6c0.4-1.3,1-2.2,1.9-2.8
		c0.9-0.6,1.9-0.9,3-0.9c1.7,0,3.1,0.6,4.2,1.7c1.1,1.2,1.7,2.6,1.7,4.2C150.3,177.5,149.8,178.9,148.7,180z M159.7,180.5
		c-0.6,0.7-1.6,1-2.9,1H153v-11.2h1.4v4.4h1.4c1.1,0,1.9,0.1,2.6,0.3c0.6,0.2,1.2,0.6,1.6,1.1s0.7,1.3,0.7,2
		C160.6,179,160.3,179.8,159.7,180.5z M164.1,181.5h-1.4v-11.2h1.4V181.5z M176.2,181.5H173v-11.2h3.2c1.2,0,2.1,0.3,2.6,0.8
		c0.5,0.6,0.8,1.2,0.8,2c0,1.1-0.5,1.9-1.5,2.3c1.5,0.5,2.2,1.5,2.2,3C180.3,180.4,178.9,181.5,176.2,181.5z M198.1,180
		c-1.1,1.2-2.5,1.8-4.2,1.8c-1.7,0-3.1-0.6-4.2-1.8c-1.1-1.2-1.6-2.5-1.6-4.1c0-1.5,0.5-2.9,1.5-4c1.1-1.3,2.6-1.9,4.3-1.9
		c1.7,0,3.2,0.6,4.3,1.9c1,1.1,1.5,2.5,1.5,4C199.8,177.5,199.2,178.8,198.1,180z M213.2,182.9h-1.4v-1.4h-9.3v1.5h-1.4v-2.7h1.4
		l4.3-10h0.8l4.3,10h1.3V182.9z M224.9,181.5h-1.4v-8.2l-8.2,8.2h-0.2v-11.2h1.4v8.3l8.2-8.3h0.1V181.5z M237.5,181.5h-1.4v-5.4
		h-6.5v5.4h-1.4v-11.2h1.4v4.4h6.5v-4.4h1.4V181.5z M253.6,181.5l-5.1-5.2l-0.5,0.4v4.8h-1.4v-11.2h1.4v4.7l5.2-4.7h2l-5.7,5.1
		l6.1,6.1H253.6z M265.1,181.5l-3.7-8.1l-3.7,8.1h-1.5l5.1-11.2h0.3l5.1,11.2H265.1z M278.6,181.5h-1.4v-8.2l-8.2,8.2h-0.2v-11.2
		h1.4v8.3l8.2-8.3h0.1V181.5z M288.8,181.5l-5.1-5.2l-0.5,0.4v4.8h-1.4v-11.2h1.4v4.7l5.2-4.7h2l-5.7,5.1l6.1,6.1H288.8z"/>
	<path class="st0" d="M27.3,171.8c-0.6-0.3-1.2-0.4-1.9-0.4c-1.1,0-2,0.4-2.8,1.1c-0.6,0.5-1,1.3-1.3,2.3h8.3
		c-0.2-0.8-0.5-1.4-0.8-1.8C28.4,172.4,27.9,172.1,27.3,171.8z"/>
	<polygon class="st0" points="8.9,180.2 15.3,180.2 12.2,172.5 	"/>
	<path class="st0" d="M144.5,171.4c-1.2,0-2.2,0.4-3.1,1.3c-0.9,0.9-1.3,2-1.3,3.2c0,1.2,0.4,2.3,1.3,3.2s1.9,1.3,3.1,1.3
		c1.2,0,2.3-0.4,3.1-1.3c0.8-0.9,1.3-1.9,1.3-3.2c0-1.2-0.4-2.3-1.3-3.2C146.7,171.8,145.7,171.4,144.5,171.4z"/>
	<path class="st0" d="M96.1,174.9c0.3-0.1,0.5-0.2,0.7-0.5c0.2-0.3,0.3-0.6,0.3-1.1c0-0.5-0.1-0.9-0.4-1.2c-0.2-0.3-0.5-0.5-0.8-0.6
		s-0.8-0.1-1.6-0.1h-0.9v3.5h0.9C95.2,175,95.8,175,96.1,174.9z"/>
	<polygon class="st0" points="203.9,180.2 210.3,180.2 207.2,172.5 	"/>
	<path class="st0" d="M66.2,172c-0.7-0.4-1.4-0.6-2.2-0.6c-1.2,0-2.3,0.4-3.1,1.3c-0.9,0.9-1.3,1.9-1.3,3.2c0,0.8,0.2,1.6,0.6,2.3
		c0.4,0.7,0.9,1.2,1.6,1.6c0.7,0.4,1.5,0.6,2.2,0.6c0.8,0,1.5-0.2,2.2-0.6c0.7-0.4,1.2-1,1.6-1.7c0.4-0.7,0.6-1.5,0.6-2.3
		c0-0.8-0.2-1.5-0.6-2.3C67.4,172.9,66.9,172.4,66.2,172z"/>
	<path class="st0" d="M49.7,171.4c-1.2,0-2.2,0.4-3.1,1.3c-0.9,0.9-1.3,2-1.3,3.2c0,0.8,0.2,1.6,0.6,2.3c0.4,0.7,0.9,1.2,1.6,1.6
		s1.4,0.6,2.2,0.6s1.5-0.2,2.2-0.6s1.2-0.9,1.6-1.6c0.4-0.7,0.6-1.5,0.6-2.3c0-1.3-0.4-2.3-1.3-3.2S50.9,171.4,49.7,171.4z"/>
</g>
<path class="st0" d="M315.8,194l-15.2-45l44.3,16l-14.9,7.6l11.2,10.8l-6.3,6.9L324,178.8L315.8,194z M304.8,153.3l11.6,34.1l7-13
	l11.5,12.1l2.7-2.9l-12-11.6l12.8-6.5L304.8,153.3z"/>
</svg>
